# xmcd
#
# Track frame offsets: 
#        150
#        9305
#        20467
#        34067
#        48175
#        60485
#        71905
#        82320
#        95567
#        110585
#        122270
#        137202
#        145997
#        156672
#        167835
#        173982
#        181585
#        190980
#        200840
#        211475
#        217375
#        228010
#        241150
#        254462
#        273582
#        282955
#        292712
#        302505
#        315290
#        329715
#        342172
#
# Disc length: 4719 seconds
#
# Revision: 2
# Processed by: cddbd v1.5.2PL0 Copyright (c) Steve Scherf et al.
# Submitted via: ExactAudioCopy v0.95b4
#
DISCID=d3126d1f
DTITLE=Sons Of The Pioneers - Songs Of The Prairie, The Standard Trans
DTITLE=criptions Disc 1
DYEAR=1900
DGENRE=
TTITLE0=Happy Roving Cowboy 1934
TTITLE1=Nellie's Blue Eyes 1934
TTITLE2=Called Away 1934
TTITLE3=Old McDonald Had A Farm 1934
TTITLE4=Peekaboo 1934
TTITLE5=The Heavenly Airplane 1934
TTITLE6=Oh Susanna 1934
TTITLE7=Song Of The Prairie 1934
TTITLE8=Way Out There 1934
TTITLE9=Belle Of Baltimore 1934
TTITLE10=Moonlight On The Prairie 1934
TTITLE11=Walk In Jerusalem 1934
TTITLE12=Milenburg Joys 1934
TTITLE13=Cagen Stomp 1934
TTITLE14=Fire In The Mountains 1934
TTITLE15=Whistlin' Rufus 1934
TTITLE16=White Mule Of Mine 1934
TTITLE17=Roundup In The Sky 1934
TTITLE18=Hold Him Down 1934
TTITLE19=Fiddlin' Around 1934
TTITLE20=Cowboy's Night Herd Song 1934
TTITLE21=Betsy From Pike 1934
TTITLE22=She Came Rollin' Down The Mountain 1934
TTITLE23=My Daddy 1934
TTITLE24=Uncle Ned 1934
TTITLE25=Rolling Stones 1934
TTITLE26=Blue Ridge Mountain Home 1934
TTITLE27=Grandfather's Clock 1934
TTITLE28=Hear Dem Bells 1934
TTITLE29=Swiss Yodel 1934
TTITLE30=rainbow's end 1934
EXTD=
EXTT0=
EXTT1=
EXTT2=
EXTT3=
EXTT4=
EXTT5=
EXTT6=
EXTT7=
EXTT8=
EXTT9=
EXTT10=
EXTT11=
EXTT12=
EXTT13=
EXTT14=
EXTT15=
EXTT16=
EXTT17=
EXTT18=
EXTT19=
EXTT20=
EXTT21=
EXTT22=
EXTT23=
EXTT24=
EXTT25=
EXTT26=
EXTT27=
EXTT28=
EXTT29=
EXTT30=
PLAYORDER=
